HIERARCHY
ROOT hip
{
  OFFSET 0.0 0.0 0.0
  CHANNELS 6 Xposition Yposition Zposition Zrotation Yrotation Xrotation
  JOINT abdomen
  {
    OFFSET 0.0 20.6881 -0.73152
    CHANNELS 3 Zrotation Xrotation Yrotation
    JOINT chest
    {
      OFFSET 0.0 11.7043 -0.48768
      CHANNELS 3 Zrotation Xrotation Yrotation
      JOINT neck
      {
        OFFSET 0.0 22.1894 -2.19456
        CHANNELS 3 Zrotation Xrotation Yrotation
        JOINT head
        {
          OFFSET -0.24384 7.07133 1.2192
          CHANNELS 3 Zrotation Xrotation Yrotation
          JOINT leftEye
          {
            OFFSET 4.14528 8.04674 8.04672
            CHANNELS 3 Zrotation Xrotation Yrotation
            End Site
            {
              OFFSET 1.0 0.0 0.0
            }
          }
          JOINT rightEye
          {
            OFFSET -3.6576 8.04674 8.04672
            CHANNELS 3 Zrotation Xrotation Yrotation
            End Site
            {
              OFFSET 1.0 0.0 0.0
            }
          }
        }
      }
      JOINT rCollar
      {
        OFFSET -2.68224 19.2634 -4.8768
        CHANNELS 3 Zrotation Xrotation Yrotation
        JOINT rShldr
        {
          OFFSET -8.77824 -1.95073 1.46304
          CHANNELS 3 Zrotation Xrotation Yrotation
          JOINT rForeArm
          {
            OFFSET -28.1742 -1.7115 0.48768
            CHANNELS 3 Zrotation Xrotation Yrotation
            JOINT rHand
            {
              OFFSET -22.5879 0.773209 7.07136
              CHANNELS 3 Zrotation Xrotation Yrotation
              JOINT rThumb1
              {
                OFFSET -1.2192 -0.487915 3.41376
                CHANNELS 3 Zrotation Xrotation Yrotation
                JOINT rThumb2
                {
                  OFFSET -3.37035 -0.52449 3.41376
                  CHANNELS 3 Zrotation Xrotation Yrotation
                  End Site
                  {
                    OFFSET -1.78271 -1.18214 1.43049
                  }
                }
              }
              JOINT rIndex1
              {
                OFFSET -7.75947 0.938293 5.60832
                CHANNELS 3 Zrotation Xrotation Yrotation
                JOINT rIndex2
                {
                  OFFSET -2.54057 -0.884171 1.56538
                  CHANNELS 3 Zrotation Xrotation Yrotation
                  End Site
                  {
                    OFFSET -1.62519 -0.234802 1.16502
                  }
                }
              }
              JOINT rMid1
              {
                OFFSET -8.24714 1.18213 3.41376
                CHANNELS 3 Zrotation Xrotation Yrotation
                JOINT rMid2
                {
                  OFFSET -3.10165 -0.590103 1.0647
                  CHANNELS 3 Zrotation Xrotation Yrotation
                  End Site
                  {
                    OFFSET -2.48547 -0.328903 0.83742
                  }
                }
              }
              JOINT rRing1
              {
                OFFSET -8.82822 0.546677 1.51678
                CHANNELS 3 Zrotation Xrotation Yrotation
                JOINT rRing2
                {
                  OFFSET -2.60934 -0.819778 -0.0198488
                  CHANNELS 3 Zrotation Xrotation Yrotation
                  End Site
                  {
                    OFFSET -2.33842 -0.294052 0.168128
                  }
                }
              }
              JOINT rPinky1
              {
                OFFSET -8.27202 -0.0477905 -0.4584
                CHANNELS 3 Zrotation Xrotation Yrotation
                JOINT rPinky2
                {
                  OFFSET -1.82734 -0.647385 -0.700984
                  CHANNELS 3 Zrotation Xrotation Yrotation
                  End Site
                  {
                    OFFSET -1.69225 -0.51767 -0.607171
                  }
                }
              }
            }
          }
        }
      }
      JOINT lCollar
      {
        OFFSET 2.68224 19.2634 -4.8768
        CHANNELS 3 Zrotation Xrotation Yrotation
        JOINT lShldr
        {
          OFFSET 8.77824 -1.95073 1.46304
          CHANNELS 3 Zrotation Xrotation Yrotation
          JOINT lForeArm
          {
            OFFSET 28.1742 -1.7115 0.48768
            CHANNELS 3 Zrotation Xrotation Yrotation
            JOINT lHand
            {
              OFFSET 22.5879 0.773209 7.07136
              CHANNELS 3 Zrotation Xrotation Yrotation
              JOINT lThumb1
              {
                OFFSET 1.2192 -0.487915 3.41376
                CHANNELS 3 Zrotation Xrotation Yrotation
                JOINT lThumb2
                {
                  OFFSET 3.37035 -0.52449 3.41376
                  CHANNELS 3 Zrotation Xrotation Yrotation
                  End Site
                  {
                    OFFSET 1.78271 -1.18214 1.43049
                  }
                }
              }
              JOINT lIndex1
              {
                OFFSET 7.75947 0.938293 5.60832
                CHANNELS 3 Zrotation Xrotation Yrotation
                JOINT lIndex2
                {
                  OFFSET 2.54057 -0.884171 1.56538
                  CHANNELS 3 Zrotation Xrotation Yrotation
                  End Site
                  {
                    OFFSET 1.62519 -0.234802 1.16502
                  }
                }
              }
              JOINT lMid1
              {
                OFFSET 8.24714 1.18213 3.41376
                CHANNELS 3 Zrotation Xrotation Yrotation
                JOINT lMid2
                {
                  OFFSET 3.10165 -0.590103 1.0647
                  CHANNELS 3 Zrotation Xrotation Yrotation
                  End Site
                  {
                    OFFSET 2.48547 -0.328903 0.83742
                  }
                }
              }
              JOINT lRing1
              {
                OFFSET 8.82822 0.546677 1.51678
                CHANNELS 3 Zrotation Xrotation Yrotation
                JOINT lRing2
                {
                  OFFSET 2.60934 -0.819778 -0.0198488
                  CHANNELS 3 Zrotation Xrotation Yrotation
                  End Site
                  {
                    OFFSET 2.33842 -0.294052 0.168128
                  }
                }
              }
              JOINT lPinky1
              {
                OFFSET 8.27202 -0.0477905 -0.4584
                CHANNELS 3 Zrotation Xrotation Yrotation
                JOINT lPinky2
                {
                  OFFSET 1.82734 -0.647385 -0.700984
                  CHANNELS 3 Zrotation Xrotation Yrotation
                  End Site
                  {
                    OFFSET 1.69225 -0.51767 -0.607171
                  }
                }
              }
            }
          }
        }
      }
    }
  }
  JOINT rButtock
  {
    OFFSET -8.77824 4.35084 1.2192
    CHANNELS 3 Zrotation Xrotation Yrotation
    JOINT rThigh
    {
      OFFSET 0.0 -1.70687 -2.19456
      CHANNELS 3 Zrotation Xrotation Yrotation
      JOINT rShin
      {
        OFFSET 0.0 -36.8199 0.73152
        CHANNELS 3 Zrotation Xrotation Yrotation
        JOINT rFoot
        {
          OFFSET 0.73152 -45.1104 -5.12064
          CHANNELS 3 Zrotation Xrotation Yrotation
          End Site
          {
            OFFSET -1.1221 -3.69964 12.103
          }
        }
      }
    }
  }
  JOINT lButtock
  {
    OFFSET 8.77824 4.35084 1.2192
    CHANNELS 3 Zrotation Xrotation Yrotation
    JOINT lThigh
    {
      OFFSET 0.0 -1.70687 -2.19456
      CHANNELS 3 Zrotation Xrotation Yrotation
      JOINT lShin
      {
        OFFSET 0.0 -36.8199 0.73152
        CHANNELS 3 Zrotation Xrotation Yrotation
        JOINT lFoot
        {
          OFFSET -0.73152 -45.1104 -5.12064
          CHANNELS 3 Zrotation Xrotation Yrotation
          End Site
          {
            OFFSET 1.1221 -3.69964 12.103
          }
        }
      }
    }
  }
}
MOTION
Frames: 4
Frame Time: 0.00833333
8.88761 82.1634 -84.3344 9.2985 2.5842 3.117 -10.7887 6.65411 -8.89758 5.47075 -1.9595 -2.6153 6.57839 -4.01489 -0.425745 -6.30003 -7.41806 -3.55123 -0.0 0.0 0.0 -0.0 0.0 0.0 -1.92408e-13 9.06446e-14 -3.96575e-14 64.6345 5.70779 -13.4548 -14.1734 -7.09519 25.9035 -0.0305141 -4.98003 -0.701683 4.19615e-11 7.15279e-10 -1.46535e-09 7.21803e-11 1.23302e-09 -2.53476e-09 4.19626e-11 7.15283e-10 -1.46535e-09 7.73091 5.47488 0.417314 4.19611e-11 7.15281e-10 -1.46535e-09 2.90554 0.965183 0.102902 4.1974e-11 7.15281e-10 -1.46535e-09 10.2786 0.731801 0.0259123 4.19573e-11 7.15279e-10 -1.46534e-09 2.22167 -0.733487 -0.20892 -1.92451e-13 9.0647e-14 -3.9906e-14 -67.6579 0.932569 -24.4733 15.5928 -8.31421 -28.8174 0.66692 -22.546 3.34489 1.82354e-09 4.82377e-09 -8.23649e-10 3.16349e-09 8.33682e-09 -1.39807e-09 1.82353e-09 4.82376e-09 -8.23627e-10 -7.73091 5.47488 -0.417314 1.82354e-09 4.82377e-09 -8.23646e-10 -2.90554 0.965183 -0.102902 1.82353e-09 4.82377e-09 -8.23647e-10 -10.2786 0.731801 -0.0259123 1.82354e-09 4.82377e-09 -8.23649e-10 -2.22167 -0.733487 0.20892 -2.03217e-16 0.0 -3.88251e-19 -19.0543 -42.5342 -11.4287 -0.604451 50.3252 1.05593 -5.52392 -4.02149 -24.7113 2.03217e-16 0.0 3.88251e-19 -12.3548 -1.66113 0.621675 0.00474393 18.5469 -0.513303 3.16544 -11.2867 10.844
8.93804 82.1802 -83.5002 9.4662 2.6305 3.2026 -10.8074 6.6679 -9.76734 5.80681 -1.88735 -2.85626 6.80225 -4.03611 -0.201768 -6.60046 -7.53307 -3.21221 -0.0 0.0 0.0 -0.0 0.0 0.0 -2.47929e-13 4.67058e-14 -6.41942e-14 63.2667 3.43988 -14.3396 -14.2288 -7.14077 26.0149 -0.0293359 -4.85978 -0.684684 3.84735e-10 6.00864e-10 -1.54386e-09 6.64954e-10 1.03437e-09 -2.66988e-09 3.84736e-10 6.00868e-10 -1.54386e-09 7.73091 5.47488 0.417314 3.84735e-10 6.00866e-10 -1.54385e-09 2.90554 0.965183 0.102902 3.84747e-10 6.00865e-10 -1.54386e-09 10.2786 0.731801 0.0259123 3.84731e-10 6.00864e-10 -1.54385e-09 2.22167 -0.733487 -0.20892 -2.48045e-13 4.67101e-14 -6.44761e-14 -67.1629 0.348682 -25.654 15.8388 -8.53849 -29.3322 0.71277 -23.252 3.46212 2.2402e-09 6.30266e-09 -8.85721e-10 3.88338e-09 1.08756e-08 -1.49563e-09 2.2402e-09 6.30265e-09 -8.85701e-10 -7.73091 5.47488 -0.417314 2.2402e-09 6.30266e-09 -8.85717e-10 -2.90554 0.965183 -0.102902 2.2402e-09 6.30266e-09 -8.85717e-10 -10.2786 0.731801 -0.0259123 2.24021e-09 6.30266e-09 -8.8572e-10 -2.22167 -0.733487 0.20892 -2.03217e-16 0.0 -3.88251e-19 -19.0644 -42.8803 -11.1735 -0.529854 47.9746 0.947295 -5.12245 -3.44251 -24.3687 2.03217e-16 0.0 3.88251e-19 -12.4727 -0.475016 0.603467 0.00182289 17.2836 -0.496799 3.09759 -11.1434 10.7366
8.98679 82.1979 -82.6636 9.6303 2.6832 3.3056 -10.8017 6.66005 -10.6151 6.14152 -1.81133 -3.09123 7.02572 -4.01422 0.0239337 -6.89639 -7.6888 -2.86758 -0.0 0.0 0.0 -0.0 0.0 0.0 -2.94409e-13 -2.18208e-14 -9.59384e-14 61.8432 1.24817 -15.2492 -14.3222 -7.21765 26.2039 -0.0295204 -4.87775 -0.687225 8.29186e-10 4.48832e-10 -1.52692e-09 1.43366e-09 7.70862e-10 -2.63968e-09 8.29186e-10 4.48835e-10 -1.52693e-09 7.73091 5.47488 0.417314 8.29186e-10 4.48833e-10 -1.52692e-09 2.90554 0.965183 0.102902 8.29195e-10 4.48833e-10 -1.52693e-09 10.2786 0.731801 0.0259123 8.2918e-10 4.48832e-10 -1.52692e-09 2.22167 -0.733487 -0.20892 -2.94634e-13 -2.18135e-14 -9.62863e-14 -66.6739 -0.204683 -26.7993 16.0891 -8.77025 -29.8611 0.758628 -23.9332 3.57642 2.73786e-09 8.05998e-09 -8.8381e-10 4.74203e-09 1.38863e-08 -1.47956e-09 2.73785e-09 8.05998e-09 -8.83794e-10 -7.73091 5.47488 -0.417314 2.73786e-09 8.05998e-09 -8.83805e-10 -2.90554 0.965183 -0.102902 2.73785e-09 8.05998e-09 -8.83805e-10 -10.2786 0.731801 -0.0259123 2.73786e-09 8.05998e-09 -8.83809e-10 -2.22167 -0.733487 0.20892 -2.03217e-16 0.0 -3.88251e-19 -19.0372 -43.1593 -10.8754 -0.462208 45.5095 0.840102 -4.66228 -2.76067 -23.9313 2.03217e-16 0.0 3.88251e-19 -12.56 0.705642 0.601326 0.000787672 15.9821 -0.476411 3.01559 -10.979 10.5834
9.0309 82.212 -81.8257 9.7836 2.7291 3.4245 -10.7902 6.62967 -11.4508 6.47418 -1.73167 -3.3236 7.25804 -3.96741 0.248199 -7.2177 -7.8625 -2.52951 -0.0 0.0 0.0 -0.0 0.0 0.0 -3.25131e-13 -8.73903e-14 -1.23359e-13 60.366 -0.855777 -16.1616 -14.4325 -7.30888 26.4282 -0.030156 -4.94312 -0.696465 1.22594e-09 3.17654e-10 -1.44349e-09 2.11994e-09 5.43738e-10 -2.49452e-09 1.22594e-09 3.17657e-10 -1.44349e-09 7.73091 5.47488 0.417314 1.22594e-09 3.17655e-10 -1.44349e-09 2.90554 0.965183 0.102902 1.22595e-09 3.17655e-10 -1.44349e-09 10.2786 0.731801 0.0259123 1.22594e-09 3.17654e-10 -1.44348e-09 2.22167 -0.733487 -0.20892 -3.2546e-13 -8.73803e-14 -1.23773e-13 -66.1877 -0.715439 -27.8977 16.3435 -9.01004 -30.4021 0.806119 -24.6165 3.69218 3.11187e-09 9.43465e-09 -8.34587e-10 5.38643e-09 1.62374e-08 -1.38394e-09 3.11186e-09 9.43465e-09 -8.34576e-10 -7.73091 5.47488 -0.417314 3.11187e-09 9.43465e-09 -8.34583e-10 -2.90554 0.965183 -0.102902 3.11186e-09 9.43465e-09 -8.34581e-10 -10.2786 0.731801 -0.0259123 3.11187e-09 9.43465e-09 -8.34586e-10 -2.22167 -0.733487 0.20892 -2.03217e-16 0.0 -3.88251e-19 -18.9874 -43.3727 -10.4987 -0.40437 43.0157 0.744886 -4.23429 -2.12844 -23.4834 2.03217e-16 0.0 3.88251e-19 -12.6462 1.98369 0.567961 -0.000984244 14.4821 -0.451917 2.90283 -10.7099 10.3935
